<svg xmlns="http://www.w3.org/2000/svg" viewBox="0 0 96 128">
  <defs>
    <linearGradient id="body" x1="0" y1="0" x2="0" y2="1"><stop offset="0" stop-color="#ffffff"/><stop offset="1" stop-color="#eef8f1"/></linearGradient>
    <linearGradient id="face" x1="0" y1="0" x2="0" y2="1"><stop offset="0" stop-color="#fffdf7"/><stop offset="1" stop-color="#fff5e9"/></linearGradient>
    <filter id="softShadow" x="-20%" y="-20%" width="140%" height="150%"><feDropShadow dx="0" dy="4" stdDeviation="3" flood-color="#9ab3a0" flood-opacity="0.32"/></filter>
  </defs>
  <rect x="10" y="9" width="76" height="112" rx="18" fill="#cfe8d9" opacity="0.9"/>
  <rect x="8" y="5" width="76" height="112" rx="18" fill="url(#body)" stroke="#b9d9c9" stroke-width="2.4" filter="url(#softShadow)"/>
  <rect x="16" y="15" width="60" height="88" rx="14" fill="url(#face)" stroke="#f1dfc9" stroke-width="1.8"/>
  <path d="M24 18c10 5 36 5 46 0" fill="none" stroke="#ffffff" stroke-width="4" stroke-linecap="round" opacity="0.8"/>
  <circle cx="23" cy="107" r="4" fill="#9ee6c2" opacity="0.65"/>
  <circle cx="70" cy="26" r="3" fill="#9ee6c2" opacity="0.5"/>
  <g transform="translate(46 58)"><rect x="-5.95" y="-17" width="11.9" height="34" rx="5.95" fill="#58bd8e"/><circle cx="0" cy="-21.42" r="4.42" fill="#58bd8e"/><circle cx="0" cy="21.42" r="4.42" fill="#58bd8e"/><path d="M-8.568 -7.48h17.136M-8.568 7.48h17.136" stroke="#fff" stroke-width="2.04" stroke-linecap="round" opacity="0.82"/><path d="M2.3800000000000003 -17.68c8.5-5.1 11.9-1.7 13.6 5.1" fill="none" stroke="#58bd8e" stroke-width="3.4" stroke-linecap="round"/></g>
</svg>
