<svg xmlns="http://www.w3.org/2000/svg" viewBox="0 0 96 128">
  <defs>
    <linearGradient id="body" x1="0" y1="0" x2="0" y2="1"><stop offset="0" stop-color="#ffffff"/><stop offset="1" stop-color="#eef8f1"/></linearGradient>
    <linearGradient id="face" x1="0" y1="0" x2="0" y2="1"><stop offset="0" stop-color="#fffdf7"/><stop offset="1" stop-color="#fff5e9"/></linearGradient>
    <filter id="softShadow" x="-20%" y="-20%" width="140%" height="150%"><feDropShadow dx="0" dy="4" stdDeviation="3" flood-color="#9ab3a0" flood-opacity="0.32"/></filter>
  </defs>
  <rect x="10" y="9" width="76" height="112" rx="18" fill="#cfe8d9" opacity="0.9"/>
  <rect x="8" y="5" width="76" height="112" rx="18" fill="url(#body)" stroke="#b9d9c9" stroke-width="2.4" filter="url(#softShadow)"/>
  <rect x="16" y="15" width="60" height="88" rx="14" fill="url(#face)" stroke="#f1dfc9" stroke-width="1.8"/>
  <path d="M24 18c10 5 36 5 46 0" fill="none" stroke="#ffffff" stroke-width="4" stroke-linecap="round" opacity="0.8"/>
  <circle cx="23" cy="107" r="4" fill="#9ed8ff" opacity="0.65"/>
  <circle cx="70" cy="26" r="3" fill="#9ed8ff" opacity="0.5"/>
  <g transform="translate(34 37)"><circle r="6.192" fill="#58bd8e" stroke="#fff" stroke-width="2"/><circle r="2.7520000000000002" fill="#fff" opacity="0.78"/><path d="M-2.60064 -2.97216c1.548-1.3622400000000001 3.4056-1.3622400000000001 4.953600000000001 0" fill="none" stroke="#fff" stroke-width="1.5" stroke-linecap="round" opacity="0.85"/></g>
  <g transform="translate(58 37)"><circle r="6.192" fill="#5f8fe8" stroke="#fff" stroke-width="2"/><circle r="2.7520000000000002" fill="#fff" opacity="0.78"/><path d="M-2.60064 -2.97216c1.548-1.3622400000000001 3.4056-1.3622400000000001 4.953600000000001 0" fill="none" stroke="#fff" stroke-width="1.5" stroke-linecap="round" opacity="0.85"/></g>
  <g transform="translate(34 58)"><circle r="6.192" fill="#ef6b68" stroke="#fff" stroke-width="2"/><circle r="2.7520000000000002" fill="#fff" opacity="0.78"/><path d="M-2.60064 -2.97216c1.548-1.3622400000000001 3.4056-1.3622400000000001 4.953600000000001 0" fill="none" stroke="#fff" stroke-width="1.5" stroke-linecap="round" opacity="0.85"/></g>
  <g transform="translate(58 58)"><circle r="6.192" fill="#f4c95d" stroke="#fff" stroke-width="2"/><circle r="2.7520000000000002" fill="#fff" opacity="0.78"/><path d="M-2.60064 -2.97216c1.548-1.3622400000000001 3.4056-1.3622400000000001 4.953600000000001 0" fill="none" stroke="#fff" stroke-width="1.5" stroke-linecap="round" opacity="0.85"/></g>
  <g transform="translate(34 79)"><circle r="6.192" fill="#58bd8e" stroke="#fff" stroke-width="2"/><circle r="2.7520000000000002" fill="#fff" opacity="0.78"/><path d="M-2.60064 -2.97216c1.548-1.3622400000000001 3.4056-1.3622400000000001 4.953600000000001 0" fill="none" stroke="#fff" stroke-width="1.5" stroke-linecap="round" opacity="0.85"/></g>
  <g transform="translate(58 79)"><circle r="6.192" fill="#5f8fe8" stroke="#fff" stroke-width="2"/><circle r="2.7520000000000002" fill="#fff" opacity="0.78"/><path d="M-2.60064 -2.97216c1.548-1.3622400000000001 3.4056-1.3622400000000001 4.953600000000001 0" fill="none" stroke="#fff" stroke-width="1.5" stroke-linecap="round" opacity="0.85"/></g>
</svg>
