<svg xmlns="http://www.w3.org/2000/svg" viewBox="0 0 760 260">
  <rect width="760" height="260" rx="30" fill="#f7fbf7"/>
  <ellipse cx="380" cy="130" rx="304" ry="92" fill="#6fa982"/>
  <ellipse cx="380" cy="130" rx="270" ry="72" fill="#5f976f" stroke="#d8ecdc" stroke-width="6"/>
  <g transform="translate(90 66)">
    <rect width="72" height="104" rx="10" fill="#fff" stroke="#e5e7eb" stroke-width="3"/>
    <text x="14" y="34" font-size="27" font-weight="800" fill="#c66d61">A</text>
    <text x="43" y="82" font-size="30" fill="#c66d61">♥</text>
  </g>
  <g transform="translate(150 74) rotate(5)">
    <rect width="72" height="104" rx="10" fill="#fff" stroke="#e5e7eb" stroke-width="3"/>
    <text x="14" y="34" font-size="27" font-weight="800" fill="#1f2937">K</text>
    <text x="43" y="82" font-size="30" fill="#1f2937">♠</text>
  </g>
  <g transform="translate(280 76)">
    <rect width="58" height="84" rx="9" fill="#fff" stroke="#e5e7eb" stroke-width="3"/>
    <text x="12" y="30" font-size="22" font-weight="800" fill="#c66d61">Q</text>
    <text x="34" y="66" font-size="24" fill="#c66d61">♦</text>
  </g>
  <g transform="translate(344 76)">
    <rect width="58" height="84" rx="9" fill="#fff" stroke="#e5e7eb" stroke-width="3"/>
    <text x="12" y="30" font-size="22" font-weight="800" fill="#c66d61">J</text>
    <text x="34" y="66" font-size="24" fill="#c66d61">♥</text>
  </g>
  <g transform="translate(408 76)">
    <rect width="58" height="84" rx="9" fill="#fff" stroke="#e5e7eb" stroke-width="3"/>
    <text x="12" y="30" font-size="22" font-weight="800" fill="#1f2937">10</text>
    <text x="34" y="66" font-size="24" fill="#1f2937">♣</text>
  </g>
  <g transform="translate(472 76)">
    <rect width="58" height="84" rx="9" fill="#fff" stroke="#e5e7eb" stroke-width="3"/>
    <text x="12" y="30" font-size="22" font-weight="800" fill="#1f2937">9</text>
    <text x="34" y="66" font-size="24" fill="#1f2937">♠</text>
  </g>
  <g transform="translate(536 76)">
    <rect width="58" height="84" rx="9" fill="#fff" stroke="#e5e7eb" stroke-width="3"/>
    <text x="12" y="30" font-size="22" font-weight="800" fill="#c66d61">8</text>
    <text x="34" y="66" font-size="24" fill="#c66d61">♦</text>
  </g>
  <g>
    <circle cx="630" cy="168" r="20" fill="#f4c15d" stroke="#fff8df" stroke-width="5"/>
    <circle cx="654" cy="178" r="20" fill="#c66d61" stroke="#ffe5df" stroke-width="5"/>
    <circle cx="610" cy="188" r="20" fill="#5f8f6a" stroke="#e6f3e8" stroke-width="5"/>
  </g>
  <text x="152" y="204" text-anchor="middle" font-size="22" font-weight="800" fill="#ffffff">手牌</text>
  <text x="438" y="204" text-anchor="middle" font-size="22" font-weight="800" fill="#ffffff">五张公共牌</text>
</svg>
