<svg xmlns="http://www.w3.org/2000/svg" viewBox="0 0 64 64">
  <defs>
    <linearGradient id="g3" x1="0%" y1="0%" x2="100%" y2="100%">
      <stop offset="0%" stop-color="#F3E8FF"/>
      <stop offset="100%" stop-color="#E4D4FF"/>
    </linearGradient>
  </defs>
  <rect x="2" y="2" width="60" height="60" rx="18" fill="url(#g3)"/>
  <ellipse cx="22" cy="14" rx="5" ry="12" fill="#C9A8F0" transform="rotate(-12 22 14)"/>
  <ellipse cx="42" cy="14" rx="5" ry="12" fill="#C9A8F0" transform="rotate(12 42 14)"/>
  <ellipse cx="32" cy="38" rx="20" ry="18" fill="#E8D9FF"/>
  <circle cx="25" cy="36" r="5" fill="#4A3D5C"/>
  <circle cx="39" cy="36" r="5" fill="#4A3D5C"/>
  <circle cx="26.5" cy="34.5" r="1.8" fill="#fff"/>
  <circle cx="40.5" cy="34.5" r="1.8" fill="#fff"/>
  <path d="M26 44c2 2.6 4.5 4 6 4s4-1.4 6-4" stroke="#9B7BC9" stroke-width="2.2" stroke-linecap="round" fill="none"/>
  <circle cx="17" cy="40" r="3.6" fill="#FF8FC4" opacity="0.4"/>
  <circle cx="47" cy="40" r="3.6" fill="#FF8FC4" opacity="0.4"/>
  <circle cx="32" cy="22" r="3" fill="#FFD6F0"/>
</svg>
